<?xml version="1.0" standalone="no"?>
<!DOCTYPE svg PUBLIC "-//W3C//DTD SVG 20010904//EN"
 "http://www.w3.org/TR/2001/REC-SVG-20010904/DTD/svg10.dtd">
<svg version="1.0" xmlns="http://www.w3.org/2000/svg"
 width="400.000000pt" height="400.000000pt" viewBox="0 0 400.000000 400.000000"
 preserveAspectRatio="xMidYMid meet">
<metadata>
Created by potrace 1.11, written by Peter Selinger 2001-2013
</metadata>
<g transform="translate(0.000000,400.000000) scale(0.100000,-0.100000)"
fill="#000000" stroke="none">
<path d="M1860 3033 c0 -5 211 -382 468 -838 l468 -830 147 -2 c81 -1 147 0
147 2 0 2 -212 380 -471 839 l-470 834 -145 1 c-79 1 -144 -2 -144 -6z"/>
<path d="M1691 2757 c-39 -68 -71 -130 -71 -137 0 -8 158 -294 351 -637 l352
-623 149 0 c82 0 147 3 145 8 -3 4 -195 345 -427 757 -232 413 -424 751 -425
753 -2 2 -35 -53 -74 -121z"/>
<path d="M1222 1929 c-165 -294 -304 -542 -307 -551 -7 -17 27 -18 615 -18
342 0 620 4 618 8 -1 5 -36 68 -76 140 l-73 132 -310 0 c-170 0 -309 3 -309 6
0 3 62 117 139 252 76 136 144 257 150 270 11 20 5 36 -54 141 -36 65 -71 126
-78 136 -12 15 -51 -49 -315 -516z"/>
</g>
</svg>
